<svg xmlns="http://www.w3.org/2000/svg" viewBox="0 123.305 595.281 595.28" width="595" height="595">
<path fill="#08007A" d="M85,123.305h425.281c46.944,0,85,38.056,85,85v425.28c0,46.943-38.056,85-85,85H85c-46.944,0-85-38.057-85-85v-425.28C0,161.361,38.056,123.305,85,123.305z"/>
<path fill="#BBFFFF" stroke="#FFFFFF" stroke-width="0.7087" stroke-miterlimit="10" d="M479.361,192.563c-5.906-5.099-13.277-11.766-19.951-15.859c-1.652-1.003-1.187-1.976-2.053,0c-1.134,2.593-0.017,12.908,1.024,18.926c10.709,62.123,52.168,99.183,47.055,172.882c-1.674,24.15-7.932,45.303-16.362,64.449c-16.008,36.329-41.443,65.865-72.636,87.979c-31.951,22.651-66.715,37.573-118.792,37.858c-52.078-0.285-86.84-15.207-118.792-37.858c-31.191-22.113-56.627-51.649-72.635-87.979c-8.432-19.146-14.689-40.299-16.363-64.449c-5.113-73.699,36.346-110.759,47.055-172.882c1.041-6.018,2.158-16.333,1.025-18.926c-0.867-1.976-0.4-1.004-2.053,0c-6.674,4.095-14.045,10.762-19.951,15.859C65.47,236.116,29.056,297.568,22.337,383.347c0,9.035,0,18.07,0,27.11c4.178,81.638,36.99,139.287,80.303,182.601c43.219,43.218,102.029,74.723,184.127,78.251c3.627,0,7.255,0,10.88,0c0.001,0,0.001,0,0.001,0c3.625,0,7.252,0,10.88,0c82.098-3.528,140.907-35.033,184.127-78.251c43.313-43.313,76.125-100.963,80.303-182.601c0-9.04,0-18.075,0-27.11C566.238,297.568,529.824,236.117,479.361,192.563z"/>
<path fill="#F693D0" stroke="#FFFFFF" stroke-width="0.7087" stroke-miterlimit="10" d="M297.86,239.061c-7.117,0-14.081,0.625-20.842,1.814c43.125,1.619,77.599,37.072,77.599,80.597c0,44.555-36.12,80.674-80.674,80.674c-22.16,0-42.229-8.939-56.81-23.404c9.685,6.275,21.223,9.935,33.622,9.935c34.199,0,61.923-27.724,61.923-61.923s-27.724-61.923-61.923-61.923c-24.671,0-45.968,14.431-55.922,35.31c-7.938,15.102-12.422,32.177-12.422,50.267c0,61.495,51.689,111.347,115.449,111.347c63.76,0,115.446-49.852,115.446-111.347C413.306,288.912,361.62,239.061,297.86,239.061z"/>
</svg>
